<svg xmlns="http://www.w3.org/2000/svg" xmlns:xlink="http://www.w3.org/1999/xlink" viewBox="0 0 40 40"><path fill="#fff" d="M8.5 2.5H31.5V37.5H8.5z"/><path fill="#4788c7" d="M31,3v34H9V3H31 M32,2H8v36h24V2L32,2z"/><path fill="#98ccfd" d="M8 5H32V35H8z"/><path fill="#fff" d="M28.5 34.581L28.5 5.419 38.5 1.718 38.5 38.282z"/><path fill="#4788c7" d="M38,2.436v35.127l-9-3.331V5.768L38,2.436 M39,1L28,5.071v29.857L39,39V1L39,1z"/><path fill="#b6dcfe" d="M36 16L36 5.309 31 7.16 31 16zM31 18L31 32.84 36 34.691 36 18z"/><g><path fill="#fff" d="M1.5 1.718L11.5 5.419 11.5 34.581 1.5 38.282z"/><path fill="#4788c7" d="M2,2.436l9,3.331v28.465l-9,3.331V2.436 M1,1v38l11-4.071V5.071L1,1L1,1z"/></g><g><path fill="#b6dcfe" d="M4 16L4 5.309 9 7.16 9 16zM9 18L9 32.84 4 34.691 4 18z"/></g></svg>